<svg width="18" fill="none" xmlns="http://www.w3.org/2000/svg">
<path d="M8.20711 0.689377C7.81658 0.298851 7.18342 0.298851 6.79289 0.689377L0.428932 7.05334C0.0384078 7.44386 0.0384078 8.07703 0.428932 8.46755C0.819457 8.85808 1.45262 8.85808 1.84315 8.46755L7.5 2.8107L13.1569 8.46755C13.5474 8.85808 14.1805 8.85808 14.5711 8.46755C14.9616 8.07703 14.9616 7.44386 14.5711 7.05334L8.20711 0.689377ZM8.5 101.396V99.4734H6.5V101.396H8.5ZM8.5 95.6273V91.7811H6.5L6.5 95.6273H8.5ZM8.5 87.9349L8.5 84.0888H6.5V87.9349H8.5ZM8.5 80.2426V76.3965H6.5V80.2426H8.5ZM8.5 72.5503V68.7042H6.5V72.5503H8.5ZM8.5 64.858V61.0119H6.5L6.5 64.858H8.5ZM8.5 57.1657V53.3196H6.5V57.1657H8.5ZM8.5 49.4734V45.6273H6.5V49.4734H8.5ZM8.5 41.7811V37.935H6.5V41.7811H8.5ZM8.5 34.0888V30.2426H6.5V34.0888H8.5ZM8.5 26.3965V22.5503H6.5V26.3965H8.5ZM8.5 18.7042V14.858H6.5V18.7042H8.5ZM8.5 11.0119V7.16573H6.5V11.0119H8.5ZM8.5 3.31957L8.5 1.39648H6.5V3.31957H8.5ZM8.20711 0.689377C7.81658 0.298851 7.18342 0.298851 6.79289 0.689377L0.428932 7.05334C0.0384078 7.44386 0.0384078 8.07703 0.428932 8.46755C0.819457 8.85808 1.45262 8.85808 1.84315 8.46755L7.5 2.8107L13.1569 8.46755C13.5474 8.85808 14.1805 8.85808 14.5711 8.46755C14.9616 8.07703 14.9616 7.44386 14.5711 7.05334L8.20711 0.689377ZM8.5 101.396V99.4734H6.5V101.396H8.5ZM8.5 95.6273V91.7811H6.5L6.5 95.6273H8.5ZM8.5 87.9349L8.5 84.0888H6.5V87.9349H8.5ZM8.5 80.2426V76.3965H6.5V80.2426H8.5ZM8.5 72.5503V68.7042H6.5V72.5503H8.5ZM8.5 64.858V61.0119H6.5L6.5 64.858H8.5ZM8.5 57.1657V53.3196H6.5V57.1657H8.5ZM8.5 49.4734V45.6273H6.5V49.4734H8.5ZM8.5 41.7811V37.935H6.5V41.7811H8.5ZM8.5 34.0888V30.2426H6.5V34.0888H8.5ZM8.5 26.3965V22.5503H6.5V26.3965H8.5ZM8.5 18.7042V14.858H6.5V18.7042H8.5ZM8.5 11.0119V7.16573H6.5V11.0119H8.5ZM8.5 3.31957L8.5 1.39648H6.5V3.31957H8.5Z" fill="#767676"/>
</svg>
