<svg  viewBox="0 0 500 400" fill="none" xmlns="http://www.w3.org/2000/svg">
<g clip-path="url(#clip0_314_3499)">
<path d="M0 4C0 1.79086 1.79086 0 4 0H496C498.209 0 500 1.79086 500 4V396C500 398.209 498.209 400 496 400H4.00001C1.79087 400 0 398.209 0 396V4Z" fill="#EDEDED"/>
<rect x="52" y="57" width="395.591" height="365.47" fill="white"/>
<rect x="72" y="77" width="144" height="12" fill="#EDEDED"/>
<rect x="72" y="97" width="80" height="12" fill="#EDEDED"/>
<rect x="72" y="133" width="200" height="12" fill="#EDEDED"/>
<rect x="72" y="153" width="200" height="12" fill="#EDEDED"/>
<rect x="72" y="173" width="200" height="12" fill="#EDEDED"/>
<rect x="72" y="193" width="200" height="12" fill="#EDEDED"/>
<rect x="72" y="213" width="200" height="12" fill="#EDEDED"/>
<rect width="92" height="40" transform="translate(360 77)" fill="#185ABD"/>
<path d="M377.848 106V90.352H382.264C383.864 90.352 385.248 90.624 386.416 91.168C387.584 91.712 388.488 92.56 389.128 93.712C389.784 94.848 390.112 96.312 390.112 98.104C390.112 99.896 389.792 101.376 389.152 102.544C388.512 103.712 387.616 104.584 386.464 105.16C385.328 105.72 383.992 106 382.456 106H377.848ZM381.376 103.144H382.048C382.944 103.144 383.72 102.984 384.376 102.664C385.048 102.344 385.568 101.816 385.936 101.08C386.304 100.344 386.488 99.352 386.488 98.104C386.488 96.856 386.304 95.88 385.936 95.176C385.568 94.456 385.048 93.952 384.376 93.664C383.72 93.36 382.944 93.208 382.048 93.208H381.376V103.144ZM399.442 106.288C398.034 106.288 396.794 105.96 395.722 105.304C394.666 104.648 393.834 103.712 393.226 102.496C392.634 101.264 392.338 99.8 392.338 98.104C392.338 96.392 392.634 94.944 393.226 93.76C393.834 92.56 394.666 91.648 395.722 91.024C396.794 90.384 398.034 90.064 399.442 90.064C400.85 90.064 402.082 90.384 403.138 91.024C404.21 91.648 405.042 92.56 405.634 93.76C406.242 94.96 406.546 96.408 406.546 98.104C406.546 99.8 406.242 101.264 405.634 102.496C405.042 103.712 404.21 104.648 403.138 105.304C402.082 105.96 400.85 106.288 399.442 106.288ZM399.442 103.24C400.514 103.24 401.362 102.776 401.986 101.848C402.61 100.92 402.922 99.672 402.922 98.104C402.922 96.536 402.61 95.312 401.986 94.432C401.362 93.552 400.514 93.112 399.442 93.112C398.37 93.112 397.522 93.552 396.898 94.432C396.274 95.312 395.962 96.536 395.962 98.104C395.962 99.672 396.274 100.92 396.898 101.848C397.522 102.776 398.37 103.24 399.442 103.24ZM416.017 106.288C414.705 106.288 413.497 105.984 412.393 105.376C411.289 104.768 410.401 103.872 409.729 102.688C409.073 101.488 408.745 100.016 408.745 98.272C408.745 96.544 409.081 95.072 409.753 93.856C410.441 92.624 411.345 91.688 412.465 91.048C413.601 90.392 414.825 90.064 416.137 90.064C417.145 90.064 418.049 90.272 418.849 90.688C419.649 91.088 420.313 91.56 420.841 92.104L418.969 94.36C418.569 93.992 418.145 93.696 417.697 93.472C417.265 93.232 416.769 93.112 416.209 93.112C415.505 93.112 414.857 93.312 414.265 93.712C413.689 94.112 413.225 94.688 412.873 95.44C412.537 96.192 412.369 97.096 412.369 98.152C412.369 99.752 412.713 101 413.401 101.896C414.089 102.792 415.009 103.24 416.161 103.24C416.801 103.24 417.369 103.096 417.865 102.808C418.377 102.52 418.825 102.176 419.209 101.776L421.081 103.984C419.769 105.52 418.081 106.288 416.017 106.288ZM421.686 106L426.03 97.96L421.95 90.352H425.886L427.254 93.304C427.43 93.656 427.606 94.04 427.782 94.456C427.974 94.872 428.174 95.328 428.382 95.824H428.478C428.654 95.328 428.822 94.872 428.982 94.456C429.158 94.04 429.326 93.656 429.486 93.304L430.734 90.352H434.502L430.446 98.128L434.766 106H430.83L429.27 102.808C429.078 102.392 428.886 101.984 428.694 101.584C428.518 101.168 428.318 100.72 428.094 100.24H427.998C427.822 100.72 427.646 101.168 427.47 101.584C427.294 101.984 427.118 102.392 426.942 102.808L425.478 106H421.686Z" fill="white"/>
</g>
<defs>
<clipPath id="clip0_314_3499">
<path d="M0 4C0 1.79086 1.79086 0 4 0H496C498.209 0 500 1.79086 500 4V396C500 398.209 498.209 400 496 400H4.00001C1.79087 400 0 398.209 0 396V4Z" fill="white"/>
</clipPath>
</defs>
</svg>
