<svg viewBox="0 0 215 187" fill="none" xmlns="http://www.w3.org/2000/svg">
<g clip-path="url(#clip0_266_4624)">
<path d="M0 4.79273C0 2.58359 1.79086 0.792725 4 0.792725H211C213.209 0.792725 215 2.58359 215 4.79272V182.585C215 184.795 213.209 186.585 211 186.585H4C1.79086 186.585 0 184.795 0 182.585V4.79273Z" fill="#EDEDED"/>
<rect x="20" y="25.7927" width="174" height="161" fill="white"/>
<rect x="32" y="37.7927" width="40" height="8" fill="#EDEDED"/>
<rect x="32" y="49.7927" width="76" height="8" fill="#EDEDED"/>
<rect x="32" y="65.7927" width="12" height="8" fill="#EDEDED"/>
<rect x="48" y="65.7927" width="12" height="8" fill="#EDEDED"/>
<rect x="64" y="65.7927" width="12" height="8" fill="#EDEDED"/>
<rect x="80" y="65.7927" width="12" height="8" fill="#EDEDED"/>
<rect x="96" y="65.7927" width="12" height="8" fill="#EDEDED"/>
<rect x="32" y="81.7927" width="76" height="8" fill="#EDEDED"/>
<rect x="32" y="93.7927" width="40" height="8" fill="#EDEDED"/>
<rect x="32" y="105.793" width="60" height="8" fill="#EDEDED"/>
<rect width="57" height="20" transform="translate(141 37.7927)" fill="#0066FF"/>
<path d="M145.996 51.7927V43.9447H147.424L149.872 48.3607L150.676 50.0287H150.724C150.692 49.6287 150.652 49.1927 150.604 48.7207C150.564 48.2487 150.544 47.7927 150.544 47.3527V43.9447H151.876V51.7927H150.448L148 47.3767L147.196 45.7087H147.148C147.18 46.1247 147.216 46.5607 147.256 47.0167C147.304 47.4727 147.328 47.9207 147.328 48.3607V51.7927H145.996ZM156.811 51.9367C156.211 51.9367 155.687 51.8167 155.239 51.5767C154.791 51.3367 154.443 50.9527 154.195 50.4247C153.955 49.8967 153.835 49.2047 153.835 48.3487V43.9447H155.227V48.4567C155.227 49.0247 155.291 49.4767 155.419 49.8127C155.555 50.1407 155.743 50.3767 155.983 50.5207C156.223 50.6567 156.499 50.7247 156.811 50.7247C157.131 50.7247 157.411 50.6567 157.651 50.5207C157.899 50.3767 158.091 50.1407 158.227 49.8127C158.371 49.4767 158.443 49.0247 158.443 48.4567V43.9447H159.775V48.3487C159.775 49.2047 159.655 49.8967 159.415 50.4247C159.175 50.9527 158.831 51.3367 158.383 51.5767C157.943 51.8167 157.419 51.9367 156.811 51.9367ZM161.734 51.7927V43.9447H163.306L164.698 47.7847C164.786 48.0327 164.87 48.2887 164.95 48.5527C165.038 48.8087 165.122 49.0647 165.202 49.3207H165.25C165.338 49.0647 165.422 48.8087 165.502 48.5527C165.582 48.2887 165.662 48.0327 165.742 47.7847L167.098 43.9447H168.682V51.7927H167.398V48.2047C167.398 47.9567 167.406 47.6887 167.422 47.4007C167.446 47.1047 167.47 46.8087 167.494 46.5127C167.526 46.2167 167.554 45.9487 167.578 45.7087H167.53L166.894 47.5327L165.61 51.0607H164.782L163.486 47.5327L162.862 45.7087H162.814C162.838 45.9487 162.862 46.2167 162.886 46.5127C162.918 46.8087 162.942 47.1047 162.958 47.4007C162.982 47.6887 162.994 47.9567 162.994 48.2047V51.7927H161.734ZM172.284 47.6167L172.008 48.5767H174.012L173.736 47.6167C173.608 47.2007 173.484 46.7727 173.364 46.3327C173.252 45.8927 173.14 45.4567 173.028 45.0247H172.98C172.876 45.4647 172.764 45.9047 172.644 46.3447C172.532 46.7767 172.412 47.2007 172.284 47.6167ZM169.656 51.7927L172.212 43.9447H173.844L176.4 51.7927H174.936L174.324 49.6687H171.684L171.072 51.7927H169.656ZM177.367 51.7927V43.9447H178.759V51.7927H177.367ZM180.754 51.7927V43.9447H183.406C183.95 43.9447 184.438 44.0167 184.87 44.1607C185.31 44.3047 185.654 44.5487 185.902 44.8927C186.158 45.2287 186.286 45.6887 186.286 46.2727C186.286 46.8727 186.142 47.3567 185.854 47.7247C185.574 48.0927 185.198 48.3567 184.726 48.5167L186.598 51.7927H185.038L183.346 48.7207H182.146V51.7927H180.754ZM182.146 47.6167H183.262C183.798 47.6167 184.206 47.5047 184.486 47.2807C184.774 47.0487 184.918 46.7127 184.918 46.2727C184.918 45.8247 184.774 45.5127 184.486 45.3367C184.206 45.1527 183.798 45.0607 183.262 45.0607H182.146V47.6167ZM189.393 47.6167L189.117 48.5767H191.121L190.845 47.6167C190.717 47.2007 190.593 46.7727 190.473 46.3327C190.361 45.8927 190.249 45.4567 190.137 45.0247H190.089C189.985 45.4647 189.873 45.9047 189.753 46.3447C189.641 46.7767 189.521 47.2007 189.393 47.6167ZM186.765 51.7927L189.321 43.9447H190.953L193.509 51.7927H192.045L191.433 49.6687H188.793L188.181 51.7927H186.765Z" fill="white"/>
</g>
<defs>
<clipPath id="clip0_266_4624">
<path d="M0 4.79273C0 2.58359 1.79086 0.792725 4 0.792725H211C213.209 0.792725 215 2.58359 215 4.79272V182.585C215 184.795 213.209 186.585 211 186.585H4C1.79086 186.585 0 184.795 0 182.585V4.79273Z" fill="white"/>
</clipPath>
</defs>
</svg>
