<svg  viewBox="0 0 500 401" fill="none" xmlns="http://www.w3.org/2000/svg">
<g clip-path="url(#clip0_266_4263)">
<path d="M0 4.58545C0 2.37631 1.79086 0.585449 4 0.585449H496C498.209 0.585449 500 2.37631 500 4.58545V396.585C500 398.795 498.209 400.585 496 400.585H4.00001C1.79087 400.585 0 398.795 0 396.585V4.58545Z" fill="#EDEDED"/>
<rect x="52" y="57.5854" width="395.591" height="365.47" fill="white"/>
<rect x="72" y="77.5854" width="144" height="12" fill="#EDEDED"/>
<rect x="72" y="97.5854" width="80" height="12" fill="#EDEDED"/>
<rect x="72" y="133.585" width="160" height="12" fill="#EDEDED"/>
<rect x="72" y="153.585" width="180" height="12" fill="#EDEDED"/>
<rect x="72" y="173.585" width="200" height="12" fill="#EDEDED"/>
<rect x="72" y="193.585" width="140" height="12" fill="#EDEDED"/>
<rect x="72" y="213.585" width="160" height="12" fill="#EDEDED"/>
<rect width="75" height="40" transform="translate(377 77.5854)" fill="#FF2116"/>
<path d="M394.848 106.585V90.9374H400.224C401.376 90.9374 402.416 91.0974 403.344 91.4174C404.288 91.7214 405.04 92.2414 405.6 92.9774C406.16 93.7134 406.44 94.7134 406.44 95.9774C406.44 97.1934 406.16 98.1934 405.6 98.9774C405.04 99.7614 404.296 100.345 403.368 100.729C402.44 101.097 401.424 101.281 400.32 101.281H398.376V106.585H394.848ZM398.376 98.4734H400.104C402.024 98.4734 402.984 97.6414 402.984 95.9774C402.984 95.1614 402.728 94.5854 402.216 94.2494C401.704 93.9134 400.968 93.7454 400.008 93.7454H398.376V98.4734ZM409.145 106.585V90.9374H413.561C415.161 90.9374 416.545 91.2094 417.713 91.7534C418.881 92.2974 419.785 93.1454 420.425 94.2974C421.081 95.4334 421.409 96.8974 421.409 98.6894C421.409 100.481 421.089 101.961 420.449 103.129C419.809 104.297 418.913 105.169 417.761 105.745C416.625 106.305 415.289 106.585 413.753 106.585H409.145ZM412.673 103.729H413.345C414.241 103.729 415.017 103.569 415.673 103.249C416.345 102.929 416.865 102.401 417.233 101.665C417.601 100.929 417.785 99.9374 417.785 98.6894C417.785 97.4414 417.601 96.4654 417.233 95.7614C416.865 95.0414 416.345 94.5374 415.673 94.2494C415.017 93.9454 414.241 93.7934 413.345 93.7934H412.673V103.729ZM424.379 106.585V90.9374H434.243V93.9134H427.907V97.5374H433.331V100.513H427.907V106.585H424.379Z" fill="white"/>
</g>
<defs>
<clipPath id="clip0_266_4263">
<path d="M0 4.58545C0 2.37631 1.79086 0.585449 4 0.585449H496C498.209 0.585449 500 2.37631 500 4.58545V396.585C500 398.795 498.209 400.585 496 400.585H4.00001C1.79087 400.585 0 398.795 0 396.585V4.58545Z" fill="white"/>
</clipPath>
</defs>
</svg>
