<svg viewBox="0 0 500 400" fill="none" xmlns="http://www.w3.org/2000/svg">
<g clip-path="url(#clip0_314_3816)">
<path d="M0 4C0 1.79086 1.79086 0 4 0H496C498.209 0 500 1.79086 500 4V396C500 398.209 498.209 400 496 400H4.00001C1.79087 400 0 398.209 0 396V4Z" fill="#EDEDED"/>
<rect x="52" y="57" width="395.591" height="365.47" fill="white"/>
<rect width="85" height="40" transform="translate(367 77)" fill="#107C41"/>
<path d="M383.264 106L387.608 97.96L383.528 90.352H387.464L388.832 93.304C389.008 93.656 389.184 94.04 389.36 94.456C389.552 94.872 389.752 95.328 389.96 95.824H390.056C390.232 95.328 390.4 94.872 390.56 94.456C390.736 94.04 390.904 93.656 391.064 93.304L392.312 90.352H396.08L392.024 98.128L396.344 106H392.408L390.848 102.808C390.656 102.392 390.464 101.984 390.272 101.584C390.096 101.168 389.896 100.72 389.672 100.24H389.576C389.4 100.72 389.224 101.168 389.048 101.584C388.872 101.984 388.696 102.392 388.52 102.808L387.056 106H383.264ZM398.465 106V90.352H401.993V103.024H408.185V106H398.465ZM414.983 106.288C413.959 106.288 412.935 106.096 411.911 105.712C410.903 105.328 409.999 104.768 409.199 104.032L411.215 101.608C411.775 102.088 412.399 102.48 413.087 102.784C413.775 103.088 414.439 103.24 415.079 103.24C415.815 103.24 416.359 103.104 416.711 102.832C417.079 102.56 417.263 102.192 417.263 101.728C417.263 101.232 417.055 100.872 416.639 100.648C416.239 100.408 415.695 100.144 415.007 99.856L412.967 98.992C412.439 98.768 411.935 98.472 411.455 98.104C410.975 97.72 410.583 97.248 410.279 96.688C409.975 96.128 409.823 95.472 409.823 94.72C409.823 93.856 410.055 93.072 410.519 92.368C410.999 91.664 411.655 91.104 412.487 90.688C413.335 90.272 414.303 90.064 415.391 90.064C416.287 90.064 417.183 90.24 418.079 90.592C418.975 90.944 419.759 91.456 420.431 92.128L418.631 94.36C418.119 93.96 417.607 93.656 417.095 93.448C416.583 93.224 416.015 93.112 415.391 93.112C414.783 93.112 414.295 93.24 413.927 93.496C413.575 93.736 413.399 94.08 413.399 94.528C413.399 95.008 413.623 95.368 414.071 95.608C414.535 95.848 415.103 96.104 415.775 96.376L417.791 97.192C418.735 97.576 419.487 98.104 420.047 98.776C420.607 99.448 420.887 100.336 420.887 101.44C420.887 102.304 420.655 103.104 420.191 103.84C419.727 104.576 419.055 105.168 418.175 105.616C417.295 106.064 416.231 106.288 414.983 106.288ZM421.959 106L426.303 97.96L422.223 90.352H426.159L427.527 93.304C427.703 93.656 427.879 94.04 428.055 94.456C428.247 94.872 428.447 95.328 428.655 95.824H428.751C428.927 95.328 429.095 94.872 429.255 94.456C429.431 94.04 429.599 93.656 429.759 93.304L431.007 90.352H434.775L430.719 98.128L435.039 106H431.103L429.543 102.808C429.351 102.392 429.159 101.984 428.967 101.584C428.791 101.168 428.591 100.72 428.367 100.24H428.271C428.095 100.72 427.919 101.168 427.743 101.584C427.567 101.984 427.391 102.392 427.215 102.808L425.751 106H421.959Z" fill="white"/>
<rect x="72" y="77" width="32" height="20" fill="#EDEDED"/>
<rect x="116" y="77" width="32" height="20" fill="#EDEDED"/>
<rect x="160" y="77" width="32" height="20" fill="#EDEDED"/>
<rect x="204" y="77" width="32" height="20" fill="#EDEDED"/>
<rect x="248" y="77" width="32" height="20" fill="#EDEDED"/>
<rect x="72" y="109" width="32" height="20" fill="#EDEDED"/>
<rect x="116" y="109" width="32" height="20" fill="#EDEDED"/>
<rect x="160" y="109" width="32" height="20" fill="#EDEDED"/>
<rect x="204" y="109" width="32" height="20" fill="#EDEDED"/>
<rect x="248" y="109" width="32" height="20" fill="#EDEDED"/>
<rect x="72" y="141" width="32" height="20" fill="#EDEDED"/>
<rect x="116" y="141" width="32" height="20" fill="#EDEDED"/>
<rect x="160" y="141" width="32" height="20" fill="#EDEDED"/>
<rect x="204" y="141" width="32" height="20" fill="#EDEDED"/>
<rect x="248" y="141" width="32" height="20" fill="#EDEDED"/>
<rect x="72" y="173" width="32" height="20" fill="#EDEDED"/>
<rect x="116" y="173" width="32" height="20" fill="#EDEDED"/>
<rect x="160" y="173" width="32" height="20" fill="#EDEDED"/>
<rect x="204" y="173" width="32" height="20" fill="#EDEDED"/>
<rect x="248" y="173" width="32" height="20" fill="#EDEDED"/>
<rect x="72" y="205" width="32" height="20" fill="#EDEDED"/>
<rect x="116" y="205" width="32" height="20" fill="#EDEDED"/>
<rect x="160" y="205" width="32" height="20" fill="#EDEDED"/>
<rect x="204" y="205" width="32" height="20" fill="#EDEDED"/>
<rect x="248" y="205" width="32" height="20" fill="#EDEDED"/>
</g>
<defs>
<clipPath id="clip0_314_3816">
<path d="M0 4C0 1.79086 1.79086 0 4 0H496C498.209 0 500 1.79086 500 4V396C500 398.209 498.209 400 496 400H4.00001C1.79087 400 0 398.209 0 396V4Z" fill="white"/>
</clipPath>
</defs>
</svg>
