<svg width="28" height="28" viewBox="0 0 28 28" fill="none" xmlns="http://www.w3.org/2000/svg">
<path d="M25.2817 16.6834L24.8151 22.5167C24.6401 24.3017 24.5001 25.6667 21.3384 25.6667H6.66172C3.50005 25.6667 3.36005 24.3017 3.18505 22.5167L2.71839 16.6834C2.62505 15.715 2.92839 14.8167 3.47672 14.1284C3.48839 14.1167 3.48839 14.1167 3.50005 14.105C4.14172 13.3234 5.11005 12.8334 6.19505 12.8334H21.8051C22.8901 12.8334 23.8467 13.3234 24.4767 14.0817C24.4884 14.0934 24.5001 14.105 24.5001 14.1167C25.0717 14.805 25.3867 15.7034 25.2817 16.6834Z"  stroke-width="2" stroke-miterlimit="10"/>
<path d="M4.08325 13.3351V7.32674C4.08325 3.36007 5.07492 2.36841 9.04159 2.36841H10.5233C12.0049 2.36841 12.3433 2.81174 12.9033 3.55841L14.3849 5.54174C14.7583 6.03174 14.9799 6.33507 15.9716 6.33507H18.9466C22.9133 6.33507 23.9049 7.32674 23.9049 11.2934V13.3817" stroke-width="2" stroke-miterlimit="10" stroke-linecap="round" stroke-linejoin="round"/>
<path d="M11.0017 19.8334H16.9984"  stroke-width="2" stroke-miterlimit="10" stroke-linecap="round" stroke-linejoin="round"/>
</svg>
