<svg  viewBox="0 0 28 28" fill="none" xmlns="http://www.w3.org/2000/svg">
<path d="M24.5699 13.79L24.3833 13.5333C24.0566 13.1367 23.6716 12.8217 23.2283 12.5883C22.6333 12.25 21.9566 12.075 21.2566 12.075H6.73161C6.03161 12.075 5.36661 12.25 4.75995 12.5883C4.30495 12.8333 3.89661 13.1717 3.55828 13.5917C2.89328 14.4433 2.57828 15.4933 2.68328 16.5433L3.11495 21.9917C3.26661 23.6367 3.46494 25.6667 7.16328 25.6667H20.8366C24.5349 25.6667 24.7216 23.6367 24.8849 21.98L25.3166 16.555C25.4216 15.575 25.1649 14.595 24.5699 13.79ZM16.7883 20.23H11.1999C10.7449 20.23 10.3833 19.8567 10.3833 19.4133C10.3833 18.97 10.7449 18.5967 11.1999 18.5967H16.7883C17.2433 18.5967 17.6049 18.97 17.6049 19.4133C17.6049 19.8683 17.2433 20.23 16.7883 20.23Z" fill="#0066FF"/>
<path d="M24.001 10.1711C24.0335 10.5544 23.6193 10.8114 23.2578 10.6799C22.6286 10.4511 21.9628 10.3367 21.2684 10.3367H6.73169C6.03353 10.3367 5.34694 10.4581 4.71262 10.6888C4.35533 10.8187 3.94336 10.5717 3.94336 10.1916V7.77001C3.94336 3.60501 5.21503 2.33334 9.38003 2.33334H10.7567C12.425 2.33334 12.95 2.87001 13.6267 3.74501L15.0267 5.61168C15.3184 6.00834 15.33 6.03168 15.8434 6.03168H18.62C22.3232 6.03168 23.7352 7.03897 24.001 10.1711Z" fill="#0066FF"/>
</svg>
