<svg width="28" height="28" viewBox="0 0 28 28" fill="none" xmlns="http://www.w3.org/2000/svg">
<path d="M10.4999 2.33331C7.44325 2.33331 4.95825 4.81831 4.95825 7.87498C4.95825 10.8733 7.30325 13.3 10.3599 13.405C10.4533 13.3933 10.5466 13.3933 10.6166 13.405C10.6399 13.405 10.6516 13.405 10.6749 13.405C10.6866 13.405 10.6866 13.405 10.6983 13.405C13.6849 13.3 16.0299 10.8733 16.0416 7.87498C16.0416 4.81831 13.5566 2.33331 10.4999 2.33331Z" fill="#0066FF"/>
<path d="M16.4266 16.5084C13.1716 14.3384 7.86329 14.3384 4.58495 16.5084C3.10329 17.5 2.28662 18.8417 2.28662 20.2767C2.28662 21.7117 3.10329 23.0417 4.57329 24.0217C6.20662 25.1184 8.35329 25.6667 10.5 25.6667C12.6466 25.6667 14.7933 25.1184 16.4266 24.0217C17.8966 23.03 18.7133 21.7 18.7133 20.2534C18.7016 18.8184 17.8966 17.4884 16.4266 16.5084Z" fill="#0066FF"/>
<path d="M23.3217 8.56331C23.5083 10.8266 21.8983 12.81 19.67 13.0783C19.6583 13.0783 19.6583 13.0783 19.6467 13.0783H19.6117C19.5417 13.0783 19.4717 13.0783 19.4133 13.1016C18.2817 13.16 17.2433 12.7983 16.4617 12.1333C17.6633 11.06 18.3517 9.44997 18.2117 7.69997C18.13 6.75497 17.8033 5.89164 17.3133 5.15664C17.7567 4.93497 18.27 4.79497 18.795 4.74831C21.0817 4.54997 23.1233 6.25331 23.3217 8.56331Z" fill="#0066FF"/>
<path d="M25.6551 19.355C25.5618 20.4867 24.8384 21.4667 23.6251 22.1317C22.4584 22.7733 20.9884 23.0767 19.5301 23.0417C20.3701 22.2833 20.8601 21.3383 20.9534 20.335C21.0701 18.8883 20.3818 17.5 19.0051 16.3917C18.2234 15.7733 17.3134 15.2833 16.3218 14.9217C18.9001 14.175 22.1434 14.6767 24.1384 16.2867C25.2118 17.15 25.7601 18.235 25.6551 19.355Z" fill="#0066FF"/>
</svg>
