<svg width="16" height="17" viewBox="0 0 16 17" fill="none" xmlns="http://www.w3.org/2000/svg">
<path d="M8.00004 9.45923C8.36823 9.45923 8.66671 9.16075 8.66671 8.79256C8.66671 8.42437 8.36823 8.12589 8.00004 8.12589C7.63185 8.12589 7.33337 8.42437 7.33337 8.79256C7.33337 9.16075 7.63185 9.45923 8.00004 9.45923Z" fill="#212121"/>
<path d="M8.00004 4.79256C8.36823 4.79256 8.66671 4.49408 8.66671 4.1259C8.66671 3.75771 8.36823 3.45923 8.00004 3.45923C7.63185 3.45923 7.33337 3.75771 7.33337 4.1259C7.33337 4.49408 7.63185 4.79256 8.00004 4.79256Z" fill="#212121"/>
<path d="M8.00004 14.1259C8.36823 14.1259 8.66671 13.8274 8.66671 13.4592C8.66671 13.091 8.36823 12.7926 8.00004 12.7926C7.63185 12.7926 7.33337 13.091 7.33337 13.4592C7.33337 13.8274 7.63185 14.1259 8.00004 14.1259Z" fill="#212121"/>
<path d="M8.00004 9.45923C8.36823 9.45923 8.66671 9.16075 8.66671 8.79256C8.66671 8.42437 8.36823 8.12589 8.00004 8.12589C7.63185 8.12589 7.33337 8.42437 7.33337 8.79256C7.33337 9.16075 7.63185 9.45923 8.00004 9.45923Z" stroke="#212121" stroke-width="1.12799" stroke-linecap="round" stroke-linejoin="round"/>
<path d="M8.00004 4.79256C8.36823 4.79256 8.66671 4.49408 8.66671 4.1259C8.66671 3.75771 8.36823 3.45923 8.00004 3.45923C7.63185 3.45923 7.33337 3.75771 7.33337 4.1259C7.33337 4.49408 7.63185 4.79256 8.00004 4.79256Z" stroke="#212121" stroke-width="1.12799" stroke-linecap="round" stroke-linejoin="round"/>
<path d="M8.00004 14.1259C8.36823 14.1259 8.66671 13.8274 8.66671 13.4592C8.66671 13.091 8.36823 12.7926 8.00004 12.7926C7.63185 12.7926 7.33337 13.091 7.33337 13.4592C7.33337 13.8274 7.63185 14.1259 8.00004 14.1259Z" stroke="#212121" stroke-width="1.12799" stroke-linecap="round" stroke-linejoin="round"/>
</svg>
