<svg width="25" height="25" viewBox="0 0 25 25" fill="none" xmlns="http://www.w3.org/2000/svg">
<path d="M12.5 19.9338C8.6339 19.9338 5.5 16.7999 5.5 12.9338C5.5 9.06774 8.6339 5.93384 12.5 5.93384C16.3661 5.93384 19.5 9.06774 19.5 12.9338C19.5 16.7999 16.3661 19.9338 12.5 19.9338ZM12.5 18.5338C13.9852 18.5338 15.4096 17.9438 16.4598 16.8936C17.51 15.8434 18.1 14.4191 18.1 12.9338C18.1 11.4486 17.51 10.0242 16.4598 8.97404C15.4096 7.92384 13.9852 7.33384 12.5 7.33384C11.0148 7.33384 9.59041 7.92384 8.5402 8.97404C7.49 10.0242 6.9 11.4486 6.9 12.9338C6.9 14.4191 7.49 15.8434 8.5402 16.8936C9.59041 17.9438 11.0148 18.5338 12.5 18.5338ZM11.8 15.0338H13.2V16.4338H11.8V15.0338ZM13.2 13.8823V14.3338H11.8V13.2838C11.8 13.0982 11.8737 12.9201 12.005 12.7889C12.1363 12.6576 12.3143 12.5838 12.5 12.5838C12.6989 12.5838 12.8936 12.5273 13.0616 12.421C13.2296 12.3146 13.364 12.1627 13.449 11.9829C13.5341 11.8032 13.5664 11.603 13.5421 11.4056C13.5178 11.2083 13.438 11.0218 13.3119 10.8681C13.1858 10.7143 13.0186 10.5995 12.8299 10.537C12.6411 10.4745 12.4384 10.4669 12.2455 10.5151C12.0526 10.5633 11.8773 10.6653 11.7401 10.8092C11.6028 10.9531 11.5093 11.133 11.4703 11.328L10.0969 11.0529C10.182 10.6274 10.3787 10.2321 10.6666 9.90745C10.9546 9.5828 11.3237 9.34045 11.736 9.20516C12.1484 9.06988 12.5892 9.04652 13.0136 9.13747C13.4379 9.22842 13.8305 9.43042 14.1512 9.72282C14.4719 10.0152 14.7091 10.3875 14.8388 10.8017C14.9684 11.2158 14.9857 11.657 14.889 12.0801C14.7923 12.5031 14.5849 12.8929 14.2882 13.2095C13.9914 13.5262 13.6159 13.7584 13.2 13.8823Z" fill="#767676"/>
</svg>
