<svg width="28" height="28" viewBox="0 0 28 28" fill="none" xmlns="http://www.w3.org/2000/svg">
    <g clip-path="url(#clip0_500_2424)">
        <path
            d="M18.9583 12.8332H9.04163C8.56329 12.8332 8.16663 13.2298 8.16663 13.7082C8.16663 14.1865 8.56329 14.5832 9.04163 14.5832H18.9583C19.4366 14.5832 19.8333 14.1865 19.8333 13.7082C19.8333 13.2298 19.4366 12.8332 18.9583 12.8332ZM18.9583 18.0832H9.04163C8.56329 18.0832 8.16663 18.4798 8.16663 18.9582C8.16663 19.4365 8.56329 19.8332 9.04163 19.8332H18.9583C19.4366 19.8332 19.8333 19.4365 19.8333 18.9582C19.8333 18.4798 19.4366 18.0832 18.9583 18.0832ZM8.16663 8.45816C8.16663 8.9365 8.56329 9.33316 9.04163 9.33316H17.7333L17.6283 9.0065C17.57 8.84316 17.4883 8.6915 17.3833 8.5515C17.3366 8.49316 17.3016 8.4465 17.255 8.39983C17.08 8.22483 16.87 8.0965 16.6483 8.0265L15.2833 7.58316H9.04163C8.56329 7.58316 8.16663 7.97983 8.16663 8.45816ZM23.1 15.5048L22.7966 14.5832L21.8633 14.2448C21.7583 14.2098 21.6766 14.1515 21.5833 14.1048V23.0415C21.5833 23.5198 21.1866 23.9165 20.7083 23.9165H7.29163C6.81329 23.9165 6.41663 23.5198 6.41663 23.0415V4.95816C6.41663 4.47983 6.81329 4.08316 7.29163 4.08316H13.7433C13.7783 4.01316 13.8016 3.9315 13.8483 3.8615C14.1283 3.46483 14.525 3.1615 15.0033 2.99816L16.6483 2.4615C16.73 2.4265 16.8233 2.37983 16.905 2.33316H7.29163C5.84496 2.33316 4.66663 3.5115 4.66663 4.95816V23.0415C4.66663 24.4882 5.84496 25.6665 7.29163 25.6665H20.7083C22.155 25.6665 23.3333 24.4882 23.3333 23.0415V15.9482C23.2371 15.8108 23.1587 15.6619 23.1 15.5048ZM18.4916 7.17483C18.585 7.26816 18.6783 7.37316 18.76 7.48983C18.9933 7.7815 19.1683 8.11983 19.285 8.4815L19.81 10.0915C19.8566 10.2198 19.9383 10.3248 20.0433 10.3948C20.1483 10.4765 20.2766 10.5115 20.405 10.5115C20.5352 10.5141 20.6625 10.473 20.7666 10.3948C20.86 10.3248 20.9416 10.2315 20.9883 10.1265V10.0915L21.525 8.4815C21.6883 7.9915 21.9566 7.54816 22.33 7.1865C22.6916 6.82483 23.135 6.54483 23.625 6.3815L25.235 5.8565C25.3633 5.80983 25.4683 5.72816 25.5383 5.62316C25.6165 5.51901 25.6575 5.3917 25.655 5.2615C25.6575 5.1313 25.6165 5.00398 25.5383 4.89983C25.4596 4.79663 25.3549 4.71613 25.235 4.6665H25.2L23.59 4.1415C23.1 3.97816 22.6566 3.70983 22.295 3.3365C21.9299 2.97302 21.6544 2.52969 21.49 2.0415L20.965 0.431497C20.9219 0.30786 20.8401 0.201452 20.7316 0.128163C20.6266 0.0581635 20.4983 0.0114968 20.37 0.0114968C20.2398 0.00892614 20.1124 0.0499954 20.0083 0.128163C19.9033 0.198163 19.8216 0.31483 19.775 0.431497L19.25 2.0415V2.0765C19.075 2.54316 18.8066 2.97483 18.4683 3.32483C18.1066 3.6865 17.675 3.9665 17.185 4.12983L15.575 4.65483C15.4466 4.7015 15.3416 4.78316 15.2716 4.88816C15.1935 4.99232 15.1524 5.11963 15.155 5.24983C15.155 5.37816 15.19 5.5065 15.2716 5.6115C15.3416 5.7165 15.4583 5.79816 15.575 5.84483L17.185 6.36983C17.675 6.53316 18.1183 6.81316 18.48 7.17483H18.4916ZM27.7433 11.9232C27.818 11.9232 27.895 11.9932 27.9416 12.0515C27.9883 12.1098 28 12.1798 28 12.2498C28 12.3198 27.9883 12.3898 27.9416 12.4482C27.895 12.5065 27.8366 12.5532 27.7666 12.5765L26.8683 12.8682C26.6 12.9615 26.355 13.1132 26.145 13.3115C25.9466 13.5098 25.795 13.7548 25.7016 14.0348L25.41 14.9215C25.3866 14.9915 25.34 15.0498 25.2816 15.0965C25.2255 15.142 25.1555 15.1668 25.0833 15.1668C25.0111 15.1668 24.9411 15.142 24.885 15.0965C24.8263 15.0517 24.7817 14.9909 24.7566 14.9215L24.465 14.0348C24.3716 13.7665 24.22 13.5098 24.0216 13.3115C23.8233 13.1132 23.5666 12.9498 23.2983 12.8682L22.4 12.5765C22.3305 12.5514 22.2698 12.5068 22.225 12.4482C22.1795 12.3921 22.1547 12.322 22.1547 12.2498C22.1547 12.1776 22.1795 12.1076 22.225 12.0515C22.2716 11.9932 22.33 11.9465 22.4 11.9232L23.2983 11.6315C23.5666 11.5382 23.8116 11.3865 24.01 11.1882C24.2083 10.9898 24.36 10.7448 24.4416 10.4765L24.7333 9.58983C24.7566 9.51983 24.8033 9.4615 24.8616 9.41483C24.9177 9.36936 24.9877 9.34455 25.06 9.34455C25.1322 9.34455 25.2022 9.36936 25.2583 9.41483C25.3166 9.4615 25.3633 9.51983 25.3866 9.58983L25.6783 10.4765C25.7716 10.7448 25.9233 10.9898 26.1216 11.1998C26.32 11.3982 26.565 11.5498 26.845 11.6432L27.7433 11.9232Z"
            fill="#212121" />
    </g>
    <defs>
        <clipPath id="clip0_500_2424">
            <rect width="28" height="28" fill="white" />
        </clipPath>
    </defs>
</svg>
    