<svg viewBox="0 0 21 21"  xmlns="http://www.w3.org/2000/svg">
    <path
        d="M7.89807 13.4125C8.07429 13.5369 8.28483 13.6034 8.50055 13.6029C8.71627 13.6024 8.92648 13.5348 9.10207 13.4095C9.28007 13.2795 9.41507 13.0995 9.48907 12.8915L9.93607 11.5185C10.0508 11.1743 10.2439 10.8616 10.5003 10.6049C10.7566 10.3482 11.0691 10.1546 11.4131 10.0395L12.8041 9.58947C13.0097 9.51501 13.1868 9.3779 13.3104 9.19745C13.4341 9.01701 13.4979 8.80233 13.4931 8.58367C13.4882 8.365 13.4149 8.15337 13.2834 7.9786C13.1519 7.80382 12.9688 7.67471 12.7601 7.60947L11.3851 7.16147C11.0407 7.04689 10.7278 6.8538 10.4709 6.59746C10.2141 6.34112 10.0203 6.02856 9.90507 5.68446L9.45307 4.29647C9.38029 4.09198 9.24558 3.91526 9.06769 3.7909C8.8898 3.66653 8.67756 3.60071 8.46052 3.60258C8.24347 3.60445 8.03241 3.67392 7.85668 3.80133C7.68096 3.92874 7.54932 4.10775 7.48007 4.31346L7.02307 5.71347C6.90835 6.04833 6.71915 6.35281 6.46972 6.60397C6.22029 6.85513 5.91713 7.04643 5.58307 7.16347L4.19307 7.61047C3.98867 7.6834 3.81204 7.81817 3.68772 7.99606C3.5634 8.17395 3.49754 8.38613 3.4993 8.60315C3.50106 8.82017 3.57035 9.03126 3.69754 9.20711C3.82473 9.38296 4.00351 9.51485 4.20907 9.58447L5.58307 10.0295C5.92914 10.1443 6.24343 10.3388 6.50066 10.5972C6.75788 10.8557 6.95086 11.1709 7.06407 11.5175L7.51607 12.9085C7.58807 13.1125 7.72207 13.2885 7.89807 13.4125ZM7.98307 5.99747L8.51007 4.62047L8.95007 5.99747C9.11359 6.49054 9.39021 6.93852 9.7578 7.30559C10.1254 7.67266 10.5738 7.94864 11.0671 8.11146L12.4731 8.64147L11.0911 9.08846C10.5982 9.25255 10.1504 9.52935 9.78322 9.89685C9.41606 10.2643 9.13969 10.7124 8.97607 11.2055L8.45307 12.5835L8.00407 11.2045C7.84272 10.7116 7.56882 10.2631 7.20407 9.89447C6.83474 9.52683 6.38585 9.24901 5.89207 9.08247L4.51407 8.56046L5.90007 8.11047C6.38669 7.94191 6.82806 7.66374 7.19007 7.29746C7.54929 6.92966 7.82042 6.48518 7.98307 5.99747ZM14.0351 17.4545C14.1374 17.5264 14.255 17.5735 14.3786 17.5921C14.5023 17.6107 14.6286 17.6003 14.7475 17.5617C14.8664 17.5231 14.9747 17.4574 15.0639 17.3697C15.153 17.282 15.2205 17.1747 15.2611 17.0565L15.5091 16.2945C15.5628 16.1366 15.6517 15.9929 15.7691 15.8745C15.8871 15.7545 16.0311 15.6665 16.1891 15.6145L16.9611 15.3625C17.1204 15.3075 17.2582 15.2036 17.355 15.0656C17.4518 14.9277 17.5025 14.7626 17.5 14.5941C17.4974 14.4256 17.4417 14.2622 17.3408 14.1273C17.2399 13.9923 17.099 13.8926 16.9381 13.8425L16.1741 13.5925C16.0161 13.5396 15.8725 13.4508 15.7546 13.3332C15.6366 13.2156 15.5475 13.0723 15.4941 12.9145L15.2421 12.1415C15.188 11.9825 15.0852 11.8446 14.9483 11.7472C14.8114 11.6499 14.6474 11.5981 14.4795 11.5992C14.3115 11.6004 14.1482 11.6543 14.0126 11.7534C13.877 11.8525 13.7761 11.9918 13.7241 12.1515L13.4771 12.9135C13.426 13.0702 13.3394 13.2131 13.2241 13.3309C13.1087 13.4486 12.9677 13.5382 12.8121 13.5925L12.0391 13.8445C11.88 13.8984 11.742 14.001 11.6445 14.1377C11.547 14.2745 11.495 14.4384 11.4959 14.6063C11.4968 14.7743 11.5505 14.9377 11.6494 15.0734C11.7483 15.2091 11.8875 15.3102 12.0471 15.3625L12.8101 15.6095C12.9701 15.6635 13.1141 15.7525 13.2321 15.8705C13.3511 15.9895 13.4391 16.1335 13.4901 16.2925L13.7431 17.0665C13.7979 17.2229 13.8999 17.3585 14.0351 17.4545ZM13.1221 14.6615L12.9431 14.6035L13.1271 14.5395C13.4296 14.4332 13.7039 14.2593 13.9292 14.0311C14.1544 13.8029 14.3247 13.5263 14.4271 13.2225L14.4851 13.0445L14.5451 13.2255C14.6472 13.5319 14.8192 13.8104 15.0477 14.0389C15.2761 14.2673 15.5546 14.4394 15.8611 14.5415L16.0561 14.6045L15.8761 14.6645C15.569 14.7668 15.29 14.9395 15.0614 15.1686C14.8327 15.3978 14.6607 15.6771 14.5591 15.9845L14.5001 16.1655L14.4421 15.9855C14.3405 15.6773 14.1682 15.3971 13.939 15.1674C13.7098 14.9376 13.43 14.7647 13.1221 14.6625"
        />
</svg>