<svg  viewBox="0 0 28 28" fill="none" xmlns="http://www.w3.org/2000/svg">
<g clip-path="url(#clip0_500_590)">
<path d="M18.76 7.73501C18.6783 7.61834 18.585 7.51334 18.4916 7.42001H18.48C18.1165 7.05498 17.6732 6.7794 17.185 6.61501L15.575 6.09001C15.4583 6.04334 15.3416 5.96167 15.2716 5.85667C15.1935 5.75252 15.1524 5.62521 15.155 5.49501C15.1524 5.36481 15.1935 5.2375 15.2716 5.13334C15.3416 5.02834 15.4466 4.94667 15.575 4.90001L17.185 4.37501C17.675 4.21167 18.1066 3.93167 18.4683 3.57001C18.8066 3.22001 19.075 2.78834 19.25 2.32168V2.28667L19.775 0.676675C19.8216 0.560008 19.9033 0.443342 20.0083 0.373342C20.1124 0.295174 20.2398 0.254104 20.37 0.256675C20.4983 0.256675 20.6266 0.303342 20.7316 0.373342C20.8366 0.443342 20.9183 0.548342 20.965 0.676675L21.49 2.28667C21.6533 2.77667 21.9333 3.22001 22.295 3.58167C22.6566 3.95501 23.1 4.22334 23.59 4.38667L25.2 4.91167H25.235C25.3516 4.95834 25.4566 5.04001 25.5383 5.14501C25.62 5.25001 25.655 5.37834 25.655 5.50667C25.6575 5.63687 25.6165 5.76419 25.5383 5.86834C25.4683 5.97334 25.3633 6.05501 25.235 6.10168L23.625 6.62667C23.135 6.79001 22.6916 7.07001 22.33 7.43167C21.9566 7.79334 21.6883 8.23667 21.525 8.72668L20.9883 10.3367V10.3717C20.9416 10.4767 20.86 10.57 20.7666 10.64C20.6625 10.7182 20.5352 10.7592 20.405 10.7567C20.2748 10.7592 20.1474 10.7182 20.0433 10.64C19.9348 10.5667 19.853 10.4603 19.81 10.3367L19.285 8.72668C19.1683 8.36501 18.9933 8.02667 18.76 7.73501ZM27.7433 12.1683L26.845 11.8883C26.565 11.795 26.32 11.6433 26.1216 11.445C25.9233 11.235 25.7716 10.99 25.6783 10.7217L25.3866 9.83501C25.3615 9.76558 25.317 9.70483 25.2583 9.66001C25.2022 9.61454 25.1322 9.58973 25.06 9.58973C24.9877 9.58973 24.9177 9.61454 24.8616 9.66001C24.8033 9.70667 24.7566 9.76501 24.7333 9.83501L24.4416 10.7217C24.36 10.99 24.2083 11.235 24.01 11.4333C23.8116 11.6317 23.5666 11.7833 23.2983 11.8767L22.4 12.1683C22.33 12.1917 22.2716 12.2383 22.225 12.2967C22.1795 12.3528 22.1547 12.4228 22.1547 12.495C22.1547 12.5672 22.1795 12.6372 22.225 12.6933C22.2716 12.7517 22.33 12.7983 22.4 12.8217L23.2983 13.1133C23.5666 13.195 23.8233 13.3583 24.0216 13.5567C24.22 13.755 24.3716 14.0117 24.465 14.28L24.7566 15.1667C24.78 15.2367 24.8266 15.295 24.885 15.3417C24.9411 15.3871 25.0111 15.412 25.0833 15.412C25.1555 15.412 25.2255 15.3871 25.2816 15.3417C25.34 15.295 25.3866 15.2367 25.41 15.1667L25.7016 14.28C25.795 14 25.9466 13.755 26.145 13.5567C26.355 13.3583 26.6 13.2067 26.8683 13.1133L27.7666 12.8217C27.8366 12.7983 27.895 12.7517 27.9416 12.6933C27.9883 12.635 28 12.565 28 12.495C28 12.425 27.9883 12.355 27.9416 12.2967C27.895 12.2383 27.818 12.2033 27.7433 12.1683ZM22.7966 14.8283L23.1 15.7617C23.1583 15.925 23.24 16.0533 23.3333 16.1933V23.2867C23.3333 24.7333 22.155 25.9117 20.7083 25.9117H7.29163C5.84496 25.9117 4.66663 24.7333 4.66663 23.2867V5.20334C4.66663 3.75668 5.84496 2.57834 7.29163 2.57834H16.9283C16.8466 2.62501 16.7533 2.67167 16.6716 2.70667L15.015 3.24334C14.5483 3.41834 14.14 3.71001 13.86 4.11834C13.5701 4.51869 13.4149 5.00075 13.4166 5.49501C13.4166 5.99668 13.5683 6.47501 13.8483 6.87167C13.9393 7.00234 14.056 7.10734 14.1691 7.20884L14.2216 7.25667H9.04163C8.56329 7.25667 8.16663 7.65334 8.16663 8.13167C8.16663 8.61001 8.56329 9.00667 9.04163 9.00667H17.4883L17.5291 9.07434C17.5679 9.13418 17.6011 9.19744 17.6283 9.26334L18.165 10.9083C18.3283 11.375 18.6316 11.7717 19.04 12.0633C19.4483 12.3433 19.9266 12.495 20.4166 12.495C20.4166 12.9267 20.545 13.3467 20.8016 13.7083C21.0583 14.07 21.4083 14.3267 21.8633 14.49L22.7966 14.8283ZM9.04163 20.6617H18.9583C19.4366 20.6617 19.8333 20.265 19.8333 19.7867C19.8333 19.3083 19.4366 18.9117 18.9583 18.9117H9.04163C8.56329 18.9117 8.16663 19.3083 8.16663 19.7867C8.16663 20.265 8.56329 20.6617 9.04163 20.6617ZM9.04163 14.8283H18.9583C19.4366 14.8283 19.8333 14.4317 19.8333 13.9533C19.8333 13.475 19.4366 13.0783 18.9583 13.0783H9.04163C8.56329 13.0783 8.16663 13.475 8.16663 13.9533C8.16663 14.4317 8.56329 14.8283 9.04163 14.8283Z" fill="#0066FF"/>
</g>
<defs>
<clipPath id="clip0_500_590">
<rect width="28" height="28" fill="white"/>
</clipPath>
</defs>
</svg>
